<?xml version="1.0" ?><svg id="Layer_1" style="enable-background:new 0 0 100 100;" version="1.1" viewBox="0 0 100 100" xml:space="preserve" xmlns="http://www.w3.org/2000/svg" xmlns:xlink="http://www.w3.org/1999/xlink"><path d="M68,47.8c0-10.6-8.6-19.2-19.2-19.2s-19.2,8.6-19.2,19.2S38.2,67,48.8,67S68,58.5,68,47.8z M48.8,42.2  c3.1,0,5.6,2.5,5.6,5.6s-2.5,5.6-5.6,5.6s-5.6-2.5-5.6-5.6S45.7,42.2,48.8,42.2z M48.8,64.2c-9,0-16.4-7.3-16.4-16.4h8.2  c0,4.5,3.7,8.2,8.2,8.2s8.2-3.7,8.2-8.2h8.2C65.2,56.9,57.8,64.2,48.8,64.2z"/><path d="M70.6,5.9H27c-5.4,0-9.8,4.4-9.8,9.8v68.6c0,5.4,4.4,9.8,9.8,9.8h43.6c5.4,0,9.8-4.4,9.8-9.8V15.7  C80.3,10.3,76,5.9,70.6,5.9z M45.8,12.1h10.7c0.6,0,1.1,0.5,1.1,1.1c0.1,0.7-0.4,1.1-1,1.1H45.8c-0.6,0-1.1-0.5-1.1-1.1  S45.2,12.1,45.8,12.1z M41.4,11.7c0.9,0,1.6,0.7,1.6,1.6s-0.7,1.6-1.6,1.6c-0.9,0-1.6-0.7-1.6-1.6S40.5,11.7,41.4,11.7z M48.8,90.8  c-2.9,0-5.2-2.3-5.2-5.2s2.3-5.2,5.2-5.2s5.2,2.3,5.2,5.2S51.7,90.8,48.8,90.8z M75.6,77.6H21.9V18h53.7V77.6z"/></svg>